  0
SECTION
  2
HEADER
  9
$ACADVER
  1
AC1009
  9
$DWGCODEPAGE
  3
ansi_1252
  9
$INSBASE
 10
0.0
 20
0.0
 30
0.0
  9
$EXTMIN
 10
-2.05
 20
-2.6933
 30
0.0
  9
$EXTMAX
 10
87.05
 20
68.05
 30
0.0
  9
$LIMMIN
 10
0.0
 20
0.0
  9
$LIMMAX
 10
12.0
 20
9.0
  9
$ORTHOMODE
 70
     0
  9
$REGENMODE
 70
     1
  9
$FILLMODE
 70
     1
  9
$QTEXTMODE
 70
     0
  9
$MIRRTEXT
 70
     1
  9
$DRAGMODE
 70
     2
  9
$LTSCALE
 40
1.0
  9
$OSMODE
 70
    37
  9
$ATTMODE
 70
     1
  9
$TEXTSIZE
 40
0.2
  9
$TRACEWID
 40
0.05
  9
$TEXTSTYLE
  7
STANDARD
  9
$CLAYER
  8
0
  9
$CELTYPE
  6
BYLAYER
  9
$CECOLOR
 62
    18
  9
$DIMSCALE
 40
1.0
  9
$DIMASZ
 40
0.18
  9
$DIMEXO
 40
0.0625
  9
$DIMDLI
 40
0.38
  9
$DIMRND
 40
0.0
  9
$DIMDLE
 40
0.0
  9
$DIMEXE
 40
0.18
  9
$DIMTP
 40
0.0
  9
$DIMTM
 40
0.0
  9
$DIMTXT
 40
0.18
  9
$DIMCEN
 40
0.09
  9
$DIMTSZ
 40
0.0
  9
$DIMTOL
 70
     0
  9
$DIMLIM
 70
     0
  9
$DIMTIH
 70
     1
  9
$DIMTOH
 70
     1
  9
$DIMSE1
 70
     0
  9
$DIMSE2
 70
     0
  9
$DIMTAD
 70
     0
  9
$DIMZIN
 70
     0
  9
$DIMBLK
  1

  9
$DIMASO
 70
     1
  9
$DIMSHO
 70
     1
  9
$DIMPOST
  1

  9
$DIMAPOST
  1

  9
$DIMALT
 70
     0
  9
$DIMALTD
 70
     2
  9
$DIMALTF
 40
25.4
  9
$DIMLFAC
 40
1.0
  9
$DIMTOFL
 70
     0
  9
$DIMTVP
 40
0.0
  9
$DIMTIX
 70
     0
  9
$DIMSOXD
 70
     0
  9
$DIMSAH
 70
     0
  9
$DIMBLK1
  1

  9
$DIMBLK2
  1

  9
$DIMSTYLE
  2
STANDARD
  9
$DIMCLRD
 70
    18
  9
$DIMCLRE
 70
    18
  9
$DIMCLRT
 70
    18
  9
$DIMTFAC
 40
1.0
  9
$DIMGAP
 40
0.09
  9
$LUNITS
 70
     2
  9
$LUPREC
 70
     4
  9
$SKETCHINC
 40
0.1
  9
$FILLETRAD
 40
0.5
  9
$AUNITS
 70
     0
  9
$AUPREC
 70
     0
  9
$MENU
  1
.
  9
$ELEVATION
 40
0.0
  9
$PELEVATION
 40
0.0
  9
$THICKNESS
 40
0.0
  9
$LIMCHECK
 70
     0
  9
$CHAMFERA
 40
0.0
  9
$CHAMFERB
 40
0.0
  9
$SKPOLY
 70
     0
  9
$TDCREATE
 40
2458296.784158843
  9
$TDUPDATE
 40
2458296.784158958
  9
$TDINDWG
 40
0.0000000116
  9
$TDUSRTIMER
 40
0.0000000116
  9
$USRTIMER
 70
     1
  9
$ANGBASE
 50
0.0
  9
$ANGDIR
 70
     0
  9
$PDMODE
 70
     0
  9
$PDSIZE
 40
0.0
  9
$PLINEWID
 40
0.0
  9
$COORDS
 70
     1
  9
$SPLFRAME
 70
     0
  9
$SPLINETYPE
 70
     6
  9
$SPLINESEGS
 70
     8
  9
$ATTDIA
 70
     0
  9
$ATTREQ
 70
     1
  9
$HANDLING
 70
     1
  9
$HANDSEED
  5
670
  9
$SURFTAB1
 70
     6
  9
$SURFTAB2
 70
     6
  9
$SURFTYPE
 70
     6
  9
$SURFU
 70
     6
  9
$SURFV
 70
     6
  9
$UCSNAME
  2

  9
$UCSORG
 10
0.0
 20
0.0
 30
0.0
  9
$UCSXDIR
 10
1.0
 20
0.0
 30
0.0
  9
$UCSYDIR
 10
0.0
 20
1.0
 30
0.0
  9
$PUCSNAME
  2

  9
$PUCSORG
 10
0.0
 20
0.0
 30
0.0
  9
$PUCSXDIR
 10
1.0
 20
0.0
 30
0.0
  9
$PUCSYDIR
 10
0.0
 20
1.0
 30
0.0
  9
$USERI1
 70
     0
  9
$USERI2
 70
     0
  9
$USERI3
 70
     0
  9
$USERI4
 70
     0
  9
$USERI5
 70
     0
  9
$USERR1
 40
0.0
  9
$USERR2
 40
0.0
  9
$USERR3
 40
0.0
  9
$USERR4
 40
0.0
  9
$USERR5
 40
0.0
  9
$WORLDVIEW
 70
     1
  9
$SHADEDGE
 70
     3
  9
$SHADEDIF
 70
    70
  9
$TILEMODE
 70
     1
  9
$MAXACTVP
 70
    64
  9
$PLIMCHECK
 70
     0
  9
$PEXTMIN
 10
1.000000000000000E+20
 20
1.000000000000000E+20
 30
1.000000000000000E+20
  9
$PEXTMAX
 10
-1.000000000000000E+20
 20
-1.000000000000000E+20
 30
-1.000000000000000E+20
  9
$PLIMMIN
 10
-0.25
 20
-0.25
  9
$PLIMMAX
 10
10.75
 20
8.25
  9
$UNITMODE
 70
     0
  9
$VISRETAIN
 70
     1
  9
$PLINEGEN
 70
     0
  9
$PSLTSCALE
 70
     1
  0
ENDSEC
  0
SECTION
  2
TABLES
  0
TABLE
  2
VPORT
 70
     1
  0
VPORT
  2
*ACTIVE
 70
     0
 10
0.0
 20
0.0
 11
1.0
 21
1.0
 12
42.5
 22
33.0
 13
0.0
 23
0.0
 14
0.5
 24
0.5
 15
0.5
 25
0.5
 16
0.0
 26
0.0
 36
1.0
 17
0.0
 27
0.0
 37
0.0
 40
75.11602209944752
 41
2.395631067961165
 42
50.0
 43
0.0
 44
0.0
 50
0.0
 51
0.0
 71
     0
 72
   100
 73
     1
 74
     3
 75
     0
 76
     0
 77
     0
 78
     0
  0
ENDTAB
  0
TABLE
  2
LTYPE
 70
    48
  0
LTYPE
  2
CONTINUOUS
 70
     0
  3
Solid line
 72
    65
 73
     0
 40
0.0
  0
LTYPE
  2
ZIGZAG
 70
     0
  3
Zig zag /\/\/\/\/\/\/\/\/\/\/\/\/\/\/\/\/\/\/\/\/\/\/\/
 72
    65
 73
     4
 40
20.32254
 49
0.00254
 49
-5.08
 49
-10.16
 49
-5.08
  0
LTYPE
  2
PHANTOMX2
 70
     0
  3
Phantom (2x) ____________    ____    ____   _
 72
    65
 73
     6
 40
127.0
 49
63.5
 49
-12.7
 49
12.7
 49
-12.7
 49
12.7
 49
-12.7
  0
LTYPE
  2
TRACKS
 70
     0
  3
Tracks -|-|-|-|-|-|-|-|-|-|-|-|-|-|-|-|-|-|-|-|-|-|-|-|-
 72
    65
 73
     2
 40
7.62
 49
3.81
 49
3.81
  0
LTYPE
  2
PHANTOM
 70
     0
  3
Phantom ______  __  __  ______  __  __  ______ 
 72
    65
 73
     6
 40
63.50000000000001
 49
31.75
 49
-6.35
 49
6.35
 49
-6.35
 49
6.35
 49
-6.35
  0
LTYPE
  2
PHANTOM2
 70
     0
  3
Phantom (.5x) ___ _ _ ___ _ _ ___ _ _ ___ _ _
 72
    65
 73
     6
 40
31.75
 49
15.875
 49
-3.175
 49
3.175
 49
-3.175
 49
3.175
 49
-3.175
  0
LTYPE
  2
HIDDENX2
 70
     0
  3
Hidden (2x) ____ ____ ____ ____ ____ ____ ____ 
 72
    65
 73
     2
 40
19.05
 49
12.7
 49
-6.35
  0
LTYPE
  2
HOT_WATER_SUPPLY
 70
     0
  3
Hot water supply ---- HW ---- HW ---- HW ----
 72
    65
 73
     3
 40
22.86
 49
12.7
 49
-5.08
 49
-5.08
  0
LTYPE
  2
ACAD_ISO08W100
 70
     0
  3
ISO long-dash short-dash ____ __ ____ __ ____ _
 72
    65
 73
     4
 40
36.0
 49
24.0
 49
-3.0
 49
6.0
 49
-3.0
  0
LTYPE
  2
ACAD_ISO09W100
 70
     0
  3
ISO long-dash double-short-dash ____ __ __ ____
 72
    65
 73
     6
 40
45.0
 49
24.0
 49
-3.0
 49
6.0
 49
-3.0
 49
6.0
 49
-3.0
  0
LTYPE
  2
ACAD_ISO06W100
 70
     0
  3
ISO long-dash triple-dot ____ ... ____ ... ____
 72
    65
 73
     8
 40
36.0
 49
24.0
 49
-3.0
 49
0.0
 49
-3.0
 49
0.0
 49
-3.0
 49
0.0
 49
-3.0
  0
LTYPE
  2
ACAD_ISO07W100
 70
     0
  3
ISO dot . . . . . . . . . . . . . . . . . . . . 
 72
    65
 73
     2
 40
3.0
 49
0.0
 49
-3.0
  0
LTYPE
  2
ACAD_ISO04W100
 70
     0
  3
ISO long-dash dot ____ . ____ . ____ . ____ . _
 72
    65
 73
     4
 40
30.0
 49
24.0
 49
-3.0
 49
0.0
 49
-3.0
  0
LTYPE
  2
ACAD_ISO05W100
 70
     0
  3
ISO long-dash double-dot ____ .. ____ .. ____ . 
 72
    65
 73
     6
 40
33.0
 49
24.0
 49
-3.0
 49
0.0
 49
-3.0
 49
0.0
 49
-3.0
  0
LTYPE
  2
ACAD_ISO02W100
 70
     0
  3
ISO dash __ __ __ __ __ __ __ __ __ __ __ __ __
 72
    65
 73
     2
 40
15.0
 49
12.0
 49
-3.0
  0
LTYPE
  2
ACAD_ISO03W100
 70
     0
  3
ISO dash space __    __    __    __    __    __
 72
    65
 73
     2
 40
30.0
 49
12.0
 49
-18.0
  0
LTYPE
  2
DASHDOT2
 70
     0
  3
Dash dot (.5x) _._._._._._._._._._._._._._._.
 72
    65
 73
     4
 40
12.7
 49
6.35
 49
-3.175
 49
0.0
 49
-3.175
  0
LTYPE
  2
DASHDOTX2
 70
     0
  3
Dash dot (2x) ____  .  ____  .  ____  .  ___
 72
    65
 73
     4
 40
50.8
 49
25.4
 49
-12.7
 49
0.0
 49
-12.7
  0
LTYPE
  2
CENTERX2
 70
     0
  3
Center (2x) ________  __  ________  __  _____
 72
    65
 73
     4
 40
101.6
 49
63.5
 49
-12.7
 49
12.7
 49
-12.7
  0
LTYPE
  2
DASHDOT
 70
     0
  3
Dash dot __ . __ . __ . __ . __ . __ . __ . __
 72
    65
 73
     4
 40
25.4
 49
12.7
 49
-6.35
 49
0.0
 49
-6.35
  0
LTYPE
  2
CENTER
 70
     0
  3
Center ____ _ ____ _ ____ _ ____ _ ____ _ ____
 72
    65
 73
     4
 40
50.8
 49
31.75
 49
-6.35
 49
6.35
 49
-6.35
  0
LTYPE
  2
CENTER2
 70
     0
  3
Center (.5x) ___ _ ___ _ ___ _ ___ _ ___ _ ___
 72
    65
 73
     4
 40
28.575
 49
19.05
 49
-3.175
 49
3.175
 49
-3.175
  0
LTYPE
  2
BORDER2
 70
     0
  3
Border (.5x) __.__.__.__.__.__.__.__.__.__.__.
 72
    65
 73
     6
 40
22.225
 49
6.35
 49
-3.175
 49
6.35
 49
-3.175
 49
0.0
 49
-3.175
  0
LTYPE
  2
BORDERX2
 70
     0
  3
Border (2x) ____  ____  .  ____  ____  .  ___
 72
    65
 73
     6
 40
88.89999999999999
 49
25.4
 49
-12.7
 49
25.4
 49
-12.7
 49
0.0
 49
-12.7
  0
LTYPE
  2
BATTING
 70
     0
  3
Batting SSSSSSSSSSSSSSSSSSSSSSSSSSSSSSSSSSSSSSSSSSSSSSS
 72
    65
 73
     4
 40
10.16254
 49
0.00254
 49
-2.54
 49
-5.08
 49
-2.54
  0
LTYPE
  2
BORDER
 70
     0
  3
Border __ __ . __ __ . __ __ . __ __ . __ __ .
 72
    65
 73
     6
 40
44.45
 49
12.7
 49
-6.35
 49
12.7
 49
-6.35
 49
0.0
 49
-6.35
  0
LTYPE
  2
ACAD_ISO14W100
 70
     0
  3
ISO dash triple-dot __ . . . __ . . . __ . . . _
 72
    65
 73
     8
 40
24.0
 49
12.0
 49
-3.0
 49
0.0
 49
-3.0
 49
0.0
 49
-3.0
 49
0.0
 49
-3.0
  0
LTYPE
  2
ACAD_ISO15W100
 70
     0
  3
ISO double-dash triple-dot __ __ . . . __ __ . .
 72
    65
 73
    10
 40
39.0
 49
12.0
 49
-3.0
 49
12.0
 49
-3.0
 49
0.0
 49
-3.0
 49
0.0
 49
-3.0
 49
0.0
 49
-3.0
  0
LTYPE
  2
ACAD_ISO12W100
 70
     0
  3
ISO dash double-dot __ . . __ . . __ . . __ . . 
 72
    65
 73
     6
 40
21.0
 49
12.0
 49
-3.0
 49
0.0
 49
-3.0
 49
0.0
 49
-3.0
  0
LTYPE
  2
ACAD_ISO13W100
 70
     0
  3
ISO double-dash double-dot __ __ . . __ __ . . _
 72
    65
 73
     8
 40
36.0
 49
12.0
 49
-3.0
 49
12.0
 49
-3.0
 49
0.0
 49
-3.0
 49
0.0
 49
-3.0
  0
LTYPE
  2
ACAD_ISO10W100
 70
     0
  3
ISO dash dot __ . __ . __ . __ . __ . __ . __ . 
 72
    65
 73
     4
 40
18.0
 49
12.0
 49
-3.0
 49
0.0
 49
-3.0
  0
LTYPE
  2
ACAD_ISO11W100
 70
     0
  3
ISO double-dash dot __ __ . __ __ . __ __ . __ _
 72
    65
 73
     6
 40
33.0
 49
12.0
 49
-3.0
 49
12.0
 49
-3.0
 49
0.0
 49
-3.0
  0
LTYPE
  2
HIDDEN
 70
     0
  3
Hidden __ __ __ __ __ __ __ __ __ __ __ __ __ __
 72
    65
 73
     2
 40
9.524999999999999
 49
6.35
 49
-3.175
  0
LTYPE
  2
HIDDEN2
 70
     0
  3
Hidden (.5x) _ _ _ _ _ _ _ _ _ _ _ _ _ _ _ _ _ 
 72
    65
 73
     2
 40
4.762499999999999
 49
3.175
 49
-1.5875
  0
LTYPE
  2
FENCELINE2
 70
     0
  3
Fenceline square ----[]-----[]----[]-----[]----[]---
 72
    65
 73
     4
 40
36.83
 49
6.35
 49
-2.54
 49
-2.54
 49
25.4
  0
LTYPE
  2
GAS_LINE
 70
     0
  3
Gas line ----GAS----GAS----GAS----GAS----GAS----GAS--
 72
    65
 73
     3
 40
24.13
 49
12.7
 49
-5.08
 49
-6.35
  0
LTYPE
  2
DRAINAGE2
 70
     0
  3
Drainage reversed----<----<----<----
 72
    65
 73
     2
 40
10.16
 49
5.08
 49
5.08
  0
LTYPE
  2
FENCELINE1
 70
     0
  3
Fenceline circle ----0-----0----0-----0----0-----0--
 72
    65
 73
     4
 40
36.83
 49
6.35
 49
-2.54
 49
-2.54
 49
25.4
  0
LTYPE
  2
DOTX2
 70
     0
  3
Dot (2x) .  .  .  .  .  .  .  .  .  .  .  .  .  .
 72
    65
 73
     2
 40
12.7
 49
0.0
 49
-12.7
  0
LTYPE
  2
DRAINAGE
 70
     0
  3
Drainage ---->---->---->----
 72
    65
 73
     2
 40
10.16
 49
5.08
 49
5.08
  0
LTYPE
  2
DOT
 70
     0
  3
Dot . . . . . . . . . . . . . . . . . . . . . . . .
 72
    65
 73
     2
 40
6.35
 49
0.0
 49
-6.35
  0
LTYPE
  2
DOT2
 70
     0
  3
Dot (.5x) ........................................
 72
    65
 73
     2
 40
3.175
 49
0.0
 49
-3.175
  0
LTYPE
  2
DIVIDE2
 70
     0
  3
Divide (.5x) __..__..__..__..__..__..__..__.._
 72
    65
 73
     6
 40
15.875
 49
6.35
 49
-3.175
 49
0.0
 49
-3.175
 49
0.0
 49
-3.175
  0
LTYPE
  2
DIVIDEX2
 70
     0
  3
Divide (2x) ________  .  .  ________  .  .  _
 72
    65
 73
     6
 40
63.5
 49
25.4
 49
-12.7
 49
0.0
 49
-12.7
 49
0.0
 49
-12.7
  0
LTYPE
  2
DASHEDX2
 70
     0
  3
Dashed (2x) ____  ____  ____  ____  ____  ___
 72
    65
 73
     2
 40
38.09999999999999
 49
25.4
 49
-12.7
  0
LTYPE
  2
DIVIDE
 70
     0
  3
Divide ____ . . ____ . . ____ . . ____ . . ____
 72
    65
 73
     6
 40
31.75
 49
12.7
 49
-6.35
 49
0.0
 49
-6.35
 49
0.0
 49
-6.35
  0
LTYPE
  2
DASHED
 70
     0
  3
Dashed __ __ __ __ __ __ __ __ __ __ __ __ __ _
 72
    65
 73
     2
 40
19.05
 49
12.7
 49
-6.35
  0
LTYPE
  2
DASHED2
 70
     0
  3
Dashed (.5x) _ _ _ _ _ _ _ _ _ _ _ _ _ _ _ _ _ 
 72
    65
 73
     2
 40
9.524999999999999
 49
6.35
 49
-3.175
  0
ENDTAB
  0
TABLE
  2
LAYER
 70
     1
  0
LAYER
  2
0
 70
     0
 62
     7
  6
CONTINUOUS
  0
ENDTAB
  0
TABLE
  2
STYLE
 70
    13
  0
STYLE
  2
STANDARD
 70
     0
 40
0.0
 41
1.0
 50
0.0
 71
     0
 42
0.2
  3
txt
  4

  0
STYLE
  2
QCADDIMTEXTSTYLE
 70
     0
 40
0.0
 41
1.0
 50
0.0
 71
     0
 42
0.2
  3

  4

  0
STYLE
  2
TEXTSTYLE0
 70
     0
 40
0.0
 41
1.0
 50
0.0
 71
     0
 42
0.2
  3
ltypeshp.shx
  4

  0
STYLE
  2
TEXTSTYLE1
 70
     0
 40
0.0
 41
1.0
 50
0.0
 71
     0
 42
0.2
  3
ltypeshp.shx
  4

  0
STYLE
  2
TEXTSTYLE2
 70
     0
 40
0.0
 41
1.0
 50
0.0
 71
     0
 42
0.2
  3
ltypeshp.shx
  4

  0
STYLE
  2
TEXTSTYLE3
 70
     0
 40
0.0
 41
1.0
 50
0.0
 71
     0
 42
0.2
  3
STANDARD
  4

  0
STYLE
  2
TEXTSTYLE4
 70
     0
 40
0.0
 41
1.0
 50
0.0
 71
     0
 42
0.2
  3
ltypeshp.shx
  4

  0
STYLE
  2
TEXTSTYLE5
 70
     0
 40
0.0
 41
1.0
 50
0.0
 71
     0
 42
0.2
  3
ltypeshp.shx
  4

  0
STYLE
  2
TEXTSTYLE6
 70
     0
 40
0.0
 41
1.0
 50
0.0
 71
     0
 42
0.2
  3
ltypeshp.shx
  4

  0
STYLE
  2
TEXTSTYLE7
 70
     0
 40
0.0
 41
1.0
 50
0.0
 71
     0
 42
0.2
  3
STANDARD
  4

  0
STYLE
  2
TEXTSTYLE8
 70
     0
 40
0.0
 41
1.0
 50
0.0
 71
     0
 42
0.2
  3
qcadshp.shx
  4

  0
STYLE
  2
TEXTSTYLE9
 70
     0
 40
0.0
 41
1.0
 50
0.0
 71
     0
 42
0.2
  3
ltypeshp.shx
  4

  0
STYLE
  2
TEXTSTYLE10
 70
     0
 40
0.0
 41
1.0
 50
0.0
 71
     0
 42
0.2
  3
qcadshp.shx
  4

  0
ENDTAB
  0
TABLE
  2
VIEW
 70
     0
  0
ENDTAB
  0
TABLE
  2
UCS
 70
     0
  0
ENDTAB
  0
TABLE
  2
APPID
 70
     2
  0
APPID
  2
ACAD
 70
     0
  0
APPID
  2
QCAD
 70
     0
  0
ENDTAB
  0
TABLE
  2
DIMSTYLE
 70
     2
  0
DIMSTYLE
  2
STANDARD
 70
     0
  3

  4

  5

  6

  7

 40
1.0
 41
0.18
 42
0.0625
 43
0.38
 44
0.18
 45
0.0
 46
0.0
 47
0.0
 48
0.0
140
0.18
141
0.09
142
0.0
143
25.4
144
1.0
145
0.0
146
1.0
147
0.09
 71
     0
 72
     0
 73
     1
 74
     1
 75
     0
 76
     0
 77
     0
 78
     0
170
     0
171
     2
172
     0
173
     0
174
     0
175
     0
176
     0
177
     0
178
     0
  0
DIMSTYLE
  2
QCADDIMSTYLE
 70
     0
  3

  4

  5

  6

  7

 40
1.0
 41
0.18
 42
0.0625
 43
0.38
 44
0.18
 45
0.0
 46
0.0
 47
0.0
 48
0.0
140
0.18
141
0.09
142
0.0
143
25.4
144
1.0
145
0.0
146
1.0
147
0.09
 71
     0
 72
     0
 73
     0
 74
     1
 75
     0
 76
     0
 77
     1
 78
     0
170
     0
171
     2
172
     0
173
     0
174
     0
175
     0
176
     0
177
     0
178
     0
  0
ENDTAB
  0
ENDSEC
  0
SECTION
  2
BLOCKS
  0
BLOCK
  8
0
  2
$MODEL_SPACE
 70
     0
 10
0.0
 20
0.0
 30
0.0
  3
$MODEL_SPACE
  1

  0
ENDBLK
  5
50F
  8
0
  0
BLOCK
 67
     1
  8
0
  2
$PAPER_SPACE
 70
     0
 10
0.0
 20
0.0
 30
0.0
  3
$PAPER_SPACE
  1

  0
ENDBLK
  5
50B
 67
     1
  8
0
  0
BLOCK
  8
0
  2
RECT
 70
     0
 10
0.0
 20
0.0
 30
0.0
  3
RECT
  1

  0
SOLID
  5
AB
  8
0
 10
-0.5
 20
-0.5
 30
0.0
 11
0.5
 21
-0.5
 31
0.0
 12
-0.5
 22
0.5
 32
0.0
 13
0.5
 23
0.5
 33
0.0
  0
ENDBLK
  5
5D3
  8
0
  0
BLOCK
  8
0
  2
SQUAREP
 70
     0
 10
0.0
 20
0.0
 30
0.0
  3
SQUAREP
  1

  0
SOLID
  5
AE
  8
0
 10
-0.5
 20
-0.5
 30
0.0
 11
0.5
 21
-0.5
 31
0.0
 12
-0.5
 22
0.5
 32
0.0
 13
0.5
 23
0.5
 33
0.0
  0
ENDBLK
  5
5D6
  8
0
  0
BLOCK
  8
0
  2
ANNULUSV
 70
     0
 10
0.0
 20
0.0
 30
0.0
  3
ANNULUSV
  1

  0
POLYLINE
  5
A3
  8
0
 66
     1
 10
0.0
 20
0.0
 30
0.0
  0
VERTEX
  5
5FE
  8
0
 10
0.0
 20
-0.25
 30
0.0
 40
0.5
 41
0.5
 42
1.0
  0
VERTEX
  5
5FF
  8
0
 10
0.0
 20
0.25
 30
0.0
 40
0.5
 41
0.5
 42
1.0
  0
VERTEX
  5
600
  8
0
 10
0.0
 20
-0.25
 30
0.0
 40
0.5
 41
0.5
  0
SEQEND
  5
651
  8
0
  0
ENDBLK
  5
5D9
  8
0
  0
BLOCK
  8
0
  2
PIE
 70
     0
 10
0.0
 20
0.0
 30
0.0
  3
PIE
  1

  0
POLYLINE
  5
AC
  8
0
 66
     1
 10
0.0
 20
0.0
 30
0.0
  0
VERTEX
  5
601
  8
0
 10
0.0
 20
-0.25
 30
0.0
 40
0.5
 41
0.5
 42
1.0
  0
VERTEX
  5
602
  8
0
 10
0.0
 20
0.25
 30
0.0
 40
0.5
 41
0.5
 42
1.0
  0
VERTEX
  5
603
  8
0
 10
0.0
 20
-0.25
 30
0.0
 40
0.5
 41
0.5
  0
SEQEND
  5
652
  8
0
  0
ENDBLK
  5
5DC
  8
0
  0
BLOCK
  8
0
  2
SQUAREV
 70
     0
 10
0.0
 20
0.0
 30
0.0
  3
SQUAREV
  1

  0
SOLID
  5
97
  8
0
 10
-0.5
 20
-0.5
 30
0.0
 11
0.5
 21
-0.5
 31
0.0
 12
-0.5
 22
0.5
 32
0.0
 13
0.5
 23
0.5
 33
0.0
  0
ENDBLK
  5
5DF
  8
0
  0
BLOCK
  8
0
  2
THERMALV
 70
     0
 10
0.0
 20
0.0
 30
0.0
  3
THERMALV
  1

  0
POLYLINE
  5
B0
  8
0
 66
     1
 10
0.0
 20
0.0
 30
0.0
  0
VERTEX
  5
604
  8
0
 10
-0.2379
 20
0.45
 30
0.0
 40
0.1
 41
0.1
  0
VERTEX
  5
605
  8
0
 10
0.2379
 20
0.45
 30
0.0
 40
0.1
 41
0.1
  0
SEQEND
  5
653
  8
0
  0
POLYLINE
  5
B1
  8
0
 66
     1
 10
0.0
 20
0.0
 30
0.0
  0
VERTEX
  5
606
  8
0
 10
0.2379
 20
0.425
 30
0.0
 40
0.05
 41
0.05
 42
1.0
  0
VERTEX
  5
607
  8
0
 10
0.2379
 20
0.475
 30
0.0
 40
0.05
 41
0.05
  0
SEQEND
  5
654
  8
0
  0
POLYLINE
  5
B3
  8
0
 66
     1
 10
0.0
 20
0.0
 30
0.0
  0
VERTEX
  5
608
  8
0
 10
-0.2379
 20
0.475
 30
0.0
 40
0.05
 41
0.05
 42
1.0
  0
VERTEX
  5
609
  8
0
 10
-0.2379
 20
0.425
 30
0.0
 40
0.05
 41
0.05
  0
SEQEND
  5
655
  8
0
  0
POLYLINE
  5
B7
  8
0
 66
     1
 10
0.0
 20
0.0
 30
0.0
  0
VERTEX
  5
60A
  8
0
 10
0.45
 20
0.2379
 30
0.0
 40
0.1
 41
0.1
  0
VERTEX
  5
60B
  8
0
 10
0.45
 20
-0.2379
 30
0.0
 40
0.1
 41
0.1
  0
SEQEND
  5
656
  8
0
  0
POLYLINE
  5
BB
  8
0
 66
     1
 10
0.0
 20
0.0
 30
0.0
  0
VERTEX
  5
60C
  8
0
 10
0.425
 20
-0.2379
 30
0.0
 40
0.05
 41
0.05
 42
1.0
  0
VERTEX
  5
60D
  8
0
 10
0.475
 20
-0.2379
 30
0.0
 40
0.05
 41
0.05
  0
SEQEND
  5
657
  8
0
  0
POLYLINE
  5
BF
  8
0
 66
     1
 10
0.0
 20
0.0
 30
0.0
  0
VERTEX
  5
60E
  8
0
 10
0.475
 20
0.2379
 30
0.0
 40
0.05
 41
0.05
 42
1.0
  0
VERTEX
  5
60F
  8
0
 10
0.425
 20
0.2379
 30
0.0
 40
0.05
 41
0.05
  0
SEQEND
  5
658
  8
0
  0
POLYLINE
  5
C3
  8
0
 66
     1
 10
0.0
 20
0.0
 30
0.0
  0
VERTEX
  5
610
  8
0
 10
0.2379
 20
-0.45
 30
0.0
 40
0.1
 41
0.1
  0
VERTEX
  5
611
  8
0
 10
-0.2379
 20
-0.45
 30
0.0
 40
0.1
 41
0.1
  0
SEQEND
  5
659
  8
0
  0
POLYLINE
  5
C7
  8
0
 66
     1
 10
0.0
 20
0.0
 30
0.0
  0
VERTEX
  5
612
  8
0
 10
-0.2379
 20
-0.425
 30
0.0
 40
0.05
 41
0.05
 42
1.0
  0
VERTEX
  5
613
  8
0
 10
-0.2379
 20
-0.475
 30
0.0
 40
0.05
 41
0.05
  0
SEQEND
  5
65A
  8
0
  0
POLYLINE
  5
CB
  8
0
 66
     1
 10
0.0
 20
0.0
 30
0.0
  0
VERTEX
  5
614
  8
0
 10
0.2379
 20
-0.475
 30
0.0
 40
0.05
 41
0.05
 42
1.0
  0
VERTEX
  5
615
  8
0
 10
0.2379
 20
-0.425
 30
0.0
 40
0.05
 41
0.05
  0
SEQEND
  5
65B
  8
0
  0
POLYLINE
  5
CF
  8
0
 66
     1
 10
0.0
 20
0.0
 30
0.0
  0
VERTEX
  5
616
  8
0
 10
-0.45
 20
-0.2379
 30
0.0
 40
0.1
 41
0.1
  0
VERTEX
  5
617
  8
0
 10
-0.45
 20
0.2379
 30
0.0
 40
0.1
 41
0.1
  0
SEQEND
  5
65C
  8
0
  0
POLYLINE
  5
D3
  8
0
 66
     1
 10
0.0
 20
0.0
 30
0.0
  0
VERTEX
  5
618
  8
0
 10
-0.425
 20
0.2379
 30
0.0
 40
0.05
 41
0.05
 42
1.0
  0
VERTEX
  5
619
  8
0
 10
-0.475
 20
0.2379
 30
0.0
 40
0.05
 41
0.05
  0
SEQEND
  5
65D
  8
0
  0
POLYLINE
  5
D7
  8
0
 66
     1
 10
0.0
 20
0.0
 30
0.0
  0
VERTEX
  5
61A
  8
0
 10
-0.475
 20
-0.2379
 30
0.0
 40
0.05
 41
0.05
 42
1.0
  0
VERTEX
  5
61B
  8
0
 10
-0.425
 20
-0.2379
 30
0.0
 40
0.05
 41
0.05
  0
SEQEND
  5
65E
  8
0
  0
ENDBLK
  5
5E2
  8
0
  0
BLOCK
  8
0
  2
THERMALP
 70
     0
 10
0.0
 20
0.0
 30
0.0
  3
THERMALP
  1

  0
POLYLINE
  5
55
  8
0
 66
     1
 10
0.0
 20
0.0
 30
0.0
  0
VERTEX
  5
61C
  8
0
 10
-0.2379
 20
0.45
 30
0.0
 40
0.1
 41
0.1
  0
VERTEX
  5
61D
  8
0
 10
0.2379
 20
0.45
 30
0.0
 40
0.1
 41
0.1
  0
SEQEND
  5
65F
  8
0
  0
POLYLINE
  5
59
  8
0
 66
     1
 10
0.0
 20
0.0
 30
0.0
  0
VERTEX
  5
61E
  8
0
 10
0.2379
 20
0.425
 30
0.0
 40
0.05
 41
0.05
 42
1.0
  0
VERTEX
  5
61F
  8
0
 10
0.2379
 20
0.475
 30
0.0
 40
0.05
 41
0.05
  0
SEQEND
  5
660
  8
0
  0
POLYLINE
  5
5D
  8
0
 66
     1
 10
0.0
 20
0.0
 30
0.0
  0
VERTEX
  5
620
  8
0
 10
-0.2379
 20
0.475
 30
0.0
 40
0.05
 41
0.05
 42
1.0
  0
VERTEX
  5
621
  8
0
 10
-0.2379
 20
0.425
 30
0.0
 40
0.05
 41
0.05
  0
SEQEND
  5
661
  8
0
  0
POLYLINE
  5
61
  8
0
 66
     1
 10
0.0
 20
0.0
 30
0.0
  0
VERTEX
  5
622
  8
0
 10
0.45
 20
0.2379
 30
0.0
 40
0.1
 41
0.1
  0
VERTEX
  5
623
  8
0
 10
0.45
 20
-0.2379
 30
0.0
 40
0.1
 41
0.1
  0
SEQEND
  5
662
  8
0
  0
POLYLINE
  5
65
  8
0
 66
     1
 10
0.0
 20
0.0
 30
0.0
  0
VERTEX
  5
624
  8
0
 10
0.425
 20
-0.2379
 30
0.0
 40
0.05
 41
0.05
 42
1.0
  0
VERTEX
  5
625
  8
0
 10
0.475
 20
-0.2379
 30
0.0
 40
0.05
 41
0.05
  0
SEQEND
  5
663
  8
0
  0
POLYLINE
  5
69
  8
0
 66
     1
 10
0.0
 20
0.0
 30
0.0
  0
VERTEX
  5
626
  8
0
 10
0.475
 20
0.2379
 30
0.0
 40
0.05
 41
0.05
 42
1.0
  0
VERTEX
  5
627
  8
0
 10
0.425
 20
0.2379
 30
0.0
 40
0.05
 41
0.05
  0
SEQEND
  5
664
  8
0
  0
POLYLINE
  5
6D
  8
0
 66
     1
 10
0.0
 20
0.0
 30
0.0
  0
VERTEX
  5
628
  8
0
 10
0.2379
 20
-0.45
 30
0.0
 40
0.1
 41
0.1
  0
VERTEX
  5
629
  8
0
 10
-0.2379
 20
-0.45
 30
0.0
 40
0.1
 41
0.1
  0
SEQEND
  5
665
  8
0
  0
POLYLINE
  5
71
  8
0
 66
     1
 10
0.0
 20
0.0
 30
0.0
  0
VERTEX
  5
62A
  8
0
 10
-0.2379
 20
-0.425
 30
0.0
 40
0.05
 41
0.05
 42
1.0
  0
VERTEX
  5
62B
  8
0
 10
-0.2379
 20
-0.475
 30
0.0
 40
0.05
 41
0.05
  0
SEQEND
  5
666
  8
0
  0
POLYLINE
  5
75
  8
0
 66
     1
 10
0.0
 20
0.0
 30
0.0
  0
VERTEX
  5
62C
  8
0
 10
0.2379
 20
-0.475
 30
0.0
 40
0.05
 41
0.05
 42
1.0
  0
VERTEX
  5
62D
  8
0
 10
0.2379
 20
-0.425
 30
0.0
 40
0.05
 41
0.05
  0
SEQEND
  5
667
  8
0
  0
POLYLINE
  5
79
  8
0
 66
     1
 10
0.0
 20
0.0
 30
0.0
  0
VERTEX
  5
62E
  8
0
 10
-0.45
 20
-0.2379
 30
0.0
 40
0.1
 41
0.1
  0
VERTEX
  5
62F
  8
0
 10
-0.45
 20
0.2379
 30
0.0
 40
0.1
 41
0.1
  0
SEQEND
  5
668
  8
0
  0
POLYLINE
  5
7D
  8
0
 66
     1
 10
0.0
 20
0.0
 30
0.0
  0
VERTEX
  5
630
  8
0
 10
-0.425
 20
0.2379
 30
0.0
 40
0.05
 41
0.05
 42
1.0
  0
VERTEX
  5
631
  8
0
 10
-0.475
 20
0.2379
 30
0.0
 40
0.05
 41
0.05
  0
SEQEND
  5
669
  8
0
  0
POLYLINE
  5
81
  8
0
 66
     1
 10
0.0
 20
0.0
 30
0.0
  0
VERTEX
  5
632
  8
0
 10
-0.475
 20
-0.2379
 30
0.0
 40
0.05
 41
0.05
 42
1.0
  0
VERTEX
  5
633
  8
0
 10
-0.425
 20
-0.2379
 30
0.0
 40
0.05
 41
0.05
  0
SEQEND
  5
66A
  8
0
  0
ENDBLK
  5
5E5
  8
0
  0
BLOCK
  8
0
  2
ROUNDV
 70
     0
 10
0.0
 20
0.0
 30
0.0
  3
ROUNDV
  1

  0
POLYLINE
  5
9B
  8
0
 66
     1
 10
0.0
 20
0.0
 30
0.0
  0
VERTEX
  5
634
  8
0
 10
0.0
 20
-0.25
 30
0.0
 40
0.5
 41
0.5
 42
1.0
  0
VERTEX
  5
635
  8
0
 10
0.0
 20
0.25
 30
0.0
 40
0.5
 41
0.5
 42
1.0
  0
VERTEX
  5
636
  8
0
 10
0.0
 20
-0.25
 30
0.0
 40
0.5
 41
0.5
  0
SEQEND
  5
66B
  8
0
  0
ENDBLK
  5
5E8
  8
0
  0
BLOCK
  8
0
  2
ROUNDP
 70
     0
 10
0.0
 20
0.0
 30
0.0
  3
ROUNDP
  1

  0
POLYLINE
  5
AF
  8
0
 66
     1
 10
0.0
 20
0.0
 30
0.0
  0
VERTEX
  5
637
  8
0
 10
0.0
 20
-0.25
 30
0.0
 40
0.5
 41
0.5
 42
1.0
  0
VERTEX
  5
638
  8
0
 10
0.0
 20
0.25
 30
0.0
 40
0.5
 41
0.5
 42
1.0
  0
VERTEX
  5
639
  8
0
 10
0.0
 20
-0.25
 30
0.0
 40
0.5
 41
0.5
  0
SEQEND
  5
66C
  8
0
  0
ENDBLK
  5
5EB
  8
0
  0
BLOCK
  8
0
  2
OCTAGONV
 70
     0
 10
0.0
 20
0.0
 30
0.0
  3
OCTAGONV
  1

  0
POLYLINE
  5
88
  8
0
 66
     1
 10
0.0
 20
0.0
 30
0.0
  0
VERTEX
  5
63A
  8
0
 10
-0.25
 20
-0.1036
 30
0.0
 40
0.5
 41
0.5
  0
VERTEX
  5
63B
  8
0
 10
-0.25
 20
0.1036
 30
0.0
 40
0.5
 41
0.5
  0
VERTEX
  5
63C
  8
0
 10
-0.1036
 20
0.25
 30
0.0
 40
0.5
 41
0.5
  0
VERTEX
  5
63D
  8
0
 10
0.1036
 20
0.25
 30
0.0
 40
0.5
 41
0.5
  0
VERTEX
  5
63E
  8
0
 10
0.25
 20
0.1036
 30
0.0
 40
0.5
 41
0.5
  0
VERTEX
  5
63F
  8
0
 10
0.25
 20
-0.1036
 30
0.0
 40
0.5
 41
0.5
  0
VERTEX
  5
640
  8
0
 10
0.1036
 20
-0.25
 30
0.0
 40
0.5
 41
0.5
  0
VERTEX
  5
641
  8
0
 10
-0.1036
 20
-0.25
 30
0.0
 40
0.5
 41
0.5
  0
VERTEX
  5
642
  8
0
 10
-0.25
 20
-0.1036
 30
0.0
 40
0.5
 41
0.5
  0
VERTEX
  5
643
  8
0
 10
-0.25
 20
0.1036
 30
0.0
 40
0.5
 41
0.5
  0
SEQEND
  5
66D
  8
0
  0
ENDBLK
  5
5F0
  8
0
  0
BLOCK
  8
0
  2
OCTAGONP
 70
     0
 10
0.0
 20
0.0
 30
0.0
  3
OCTAGONP
  1

  0
POLYLINE
  5
AD
  8
0
 66
     1
 10
0.0
 20
0.0
 30
0.0
  0
VERTEX
  5
644
  8
0
 10
-0.25
 20
-0.1036
 30
0.0
 40
0.5
 41
0.5
  0
VERTEX
  5
645
  8
0
 10
-0.25
 20
0.1036
 30
0.0
 40
0.5
 41
0.5
  0
VERTEX
  5
646
  8
0
 10
-0.1036
 20
0.25
 30
0.0
 40
0.5
 41
0.5
  0
VERTEX
  5
647
  8
0
 10
0.1036
 20
0.25
 30
0.0
 40
0.5
 41
0.5
  0
VERTEX
  5
648
  8
0
 10
0.25
 20
0.1036
 30
0.0
 40
0.5
 41
0.5
  0
VERTEX
  5
649
  8
0
 10
0.25
 20
-0.1036
 30
0.0
 40
0.5
 41
0.5
  0
VERTEX
  5
64A
  8
0
 10
0.1036
 20
-0.25
 30
0.0
 40
0.5
 41
0.5
  0
VERTEX
  5
64B
  8
0
 10
-0.1036
 20
-0.25
 30
0.0
 40
0.5
 41
0.5
  0
VERTEX
  5
64C
  8
0
 10
-0.25
 20
-0.1036
 30
0.0
 40
0.5
 41
0.5
  0
VERTEX
  5
64D
  8
0
 10
-0.25
 20
0.1036
 30
0.0
 40
0.5
 41
0.5
  0
SEQEND
  5
66E
  8
0
  0
ENDBLK
  5
5F3
  8
0
  0
BLOCK
  8
0
  2
ANNULUSP
 70
     0
 10
0.0
 20
0.0
 30
0.0
  3
ANNULUSP
  1

  0
POLYLINE
  5
4D
  8
0
 66
     1
 10
0.0
 20
0.0
 30
0.0
  0
VERTEX
  5
64E
  8
0
 10
0.0
 20
-0.25
 30
0.0
 40
0.5
 41
0.5
 42
1.0
  0
VERTEX
  5
64F
  8
0
 10
0.0
 20
0.25
 30
0.0
 40
0.5
 41
0.5
 42
1.0
  0
VERTEX
  5
650
  8
0
 10
0.0
 20
-0.25
 30
0.0
 40
0.5
 41
0.5
  0
SEQEND
  5
66F
  8
0
  0
ENDBLK
  5
5F6
  8
0
  0
ENDSEC
  0
SECTION
  2
ENTITIES
  0
LINE
  5
DC
  8
0
 10
2.0
 20
0.0
 30
0.0
 11
83.0
 21
0.0
 31
0.0
  0
ARC
  5
DD
  8
0
 10
83.0
 20
2.0
 30
0.0
 40
2.0
 50
270.0
 51
0.0
  0
LINE
  5
DE
  8
0
 10
85.0
 20
2.0
 30
0.0
 11
85.0
 21
64.0
 31
0.0
  0
LINE
  5
DF
  8
0
 10
2.0
 20
66.0
 30
0.0
 11
83.0
 21
66.0
 31
0.0
  0
ARC
  5
E0
  8
0
 10
83.0
 20
64.0
 30
0.0
 40
2.0
 50
0.0
 51
90.0
  0
ARC
  5
E1
  8
0
 10
2.0
 20
64.0
 30
0.0
 40
2.0
 50
90.0
 51
180.0
  0
ARC
  5
E2
  8
0
 10
2.0
 20
2.0
 30
0.0
 40
2.0
 50
180.0
 51
270.0
  0
LINE
  5
E3
  8
0
 10
0.0
 20
2.0
 30
0.0
 11
0.0
 21
64.0
 31
0.0
  0
ARC
  5
E4
  8
0
 10
15.0
 20
20.0
 30
0.0
 40
2.0
 50
90.0
 51
180.0
  0
LINE
  5
E5
  8
0
 10
15.0
 20
22.0
 30
0.0
 11
19.0
 21
22.0
 31
0.0
  0
ARC
  5
E6
  8
0
 10
19.0
 20
20.0
 30
0.0
 40
2.0
 50
0.0
 51
90.0
  0
LINE
  5
E7
  8
0
 10
21.0
 20
20.0
 30
0.0
 11
21.0
 21
10.0
 31
0.0
  0
ARC
  5
E8
  8
0
 10
19.0
 20
10.0
 30
0.0
 40
2.0
 50
270.0
 51
0.0
  0
LINE
  5
E9
  8
0
 10
19.0
 20
8.0
 30
0.0
 11
15.0
 21
8.0
 31
0.0
  0
ARC
  5
EA
  8
0
 10
15.0
 20
10.0
 30
0.0
 40
2.0
 50
180.0
 51
270.0
  0
LINE
  5
EB
  8
0
 10
13.0
 20
10.0
 30
0.0
 11
13.0
 21
20.0
 31
0.0
  0
ARC
  5
EC
  8
0
 10
15.0
 20
38.0
 30
0.0
 40
2.0
 50
90.0
 51
180.0
  0
LINE
  5
ED
  8
0
 10
15.0
 20
40.0
 30
0.0
 11
19.0
 21
40.0
 31
0.0
  0
ARC
  5
EE
  8
0
 10
19.0
 20
38.0
 30
0.0
 40
2.0
 50
0.0
 51
90.0
  0
LINE
  5
EF
  8
0
 10
21.0
 20
38.0
 30
0.0
 11
21.0
 21
28.0
 31
0.0
  0
ARC
  5
F0
  8
0
 10
19.0
 20
28.0
 30
0.0
 40
2.0
 50
270.0
 51
0.0
  0
LINE
  5
F1
  8
0
 10
19.0
 20
26.0
 30
0.0
 11
15.0
 21
26.0
 31
0.0
  0
ARC
  5
F2
  8
0
 10
15.0
 20
28.0
 30
0.0
 40
2.0
 50
180.0
 51
270.0
  0
LINE
  5
F3
  8
0
 10
13.0
 20
28.0
 30
0.0
 11
13.0
 21
38.0
 31
0.0
  0
ARC
  5
F4
  8
0
 10
15.0
 20
56.0
 30
0.0
 40
2.0
 50
90.0
 51
180.0
  0
LINE
  5
F5
  8
0
 10
15.0
 20
58.0
 30
0.0
 11
19.0
 21
58.0
 31
0.0
  0
ARC
  5
F6
  8
0
 10
19.0
 20
56.0
 30
0.0
 40
2.0
 50
0.0
 51
90.0
  0
LINE
  5
F7
  8
0
 10
21.0
 20
56.0
 30
0.0
 11
21.0
 21
46.0
 31
0.0
  0
ARC
  5
F8
  8
0
 10
19.0
 20
46.0
 30
0.0
 40
2.0
 50
270.0
 51
0.0
  0
LINE
  5
F9
  8
0
 10
19.0
 20
44.0
 30
0.0
 11
15.0
 21
44.0
 31
0.0
  0
ARC
  5
FA
  8
0
 10
15.0
 20
46.0
 30
0.0
 40
2.0
 50
180.0
 51
270.0
  0
LINE
  5
FB
  8
0
 10
13.0
 20
46.0
 30
0.0
 11
13.0
 21
56.0
 31
0.0
  0
ARC
  5
FC
  8
0
 10
42.0
 20
18.0
 30
0.0
 40
2.0
 50
90.0
 51
180.0
  0
LINE
  5
FD
  8
0
 10
42.0
 20
20.0
 30
0.0
 11
46.0
 21
20.0
 31
0.0
  0
ARC
  5
FE
  8
0
 10
46.0
 20
18.0
 30
0.0
 40
2.0
 50
0.0
 51
90.0
  0
LINE
  5
FF
  8
0
 10
48.0
 20
18.0
 30
0.0
 11
48.0
 21
8.0
 31
0.0
  0
ARC
  5
100
  8
0
 10
46.0
 20
8.0
 30
0.0
 40
2.0
 50
270.0
 51
0.0
  0
LINE
  5
101
  8
0
 10
46.0
 20
6.0
 30
0.0
 11
42.0
 21
6.0
 31
0.0
  0
ARC
  5
102
  8
0
 10
42.0
 20
8.0
 30
0.0
 40
2.0
 50
180.0
 51
270.0
  0
LINE
  5
103
  8
0
 10
40.0
 20
8.0
 30
0.0
 11
40.0
 21
18.0
 31
0.0
  0
ARC
  5
104
  8
0
 10
42.0
 20
38.0
 30
0.0
 40
2.0
 50
90.0
 51
180.0
  0
LINE
  5
105
  8
0
 10
42.0
 20
40.0
 30
0.0
 11
46.0
 21
40.0
 31
0.0
  0
ARC
  5
106
  8
0
 10
46.0
 20
38.0
 30
0.0
 40
2.0
 50
0.0
 51
90.0
  0
LINE
  5
107
  8
0
 10
48.0
 20
38.0
 30
0.0
 11
48.0
 21
28.0
 31
0.0
  0
ARC
  5
108
  8
0
 10
46.0
 20
28.0
 30
0.0
 40
2.0
 50
270.0
 51
0.0
  0
LINE
  5
109
  8
0
 10
46.0
 20
26.0
 30
0.0
 11
42.0
 21
26.0
 31
0.0
  0
ARC
  5
10A
  8
0
 10
42.0
 20
28.0
 30
0.0
 40
2.0
 50
180.0
 51
270.0
  0
LINE
  5
10B
  8
0
 10
40.0
 20
28.0
 30
0.0
 11
40.0
 21
38.0
 31
0.0
  0
ARC
  5
10C
  8
0
 10
42.0
 20
58.0
 30
0.0
 40
2.0
 50
90.0
 51
180.0
  0
LINE
  5
10D
  8
0
 10
42.0
 20
60.0
 30
0.0
 11
46.0
 21
60.0
 31
0.0
  0
ARC
  5
10E
  8
0
 10
46.0
 20
58.0
 30
0.0
 40
2.0
 50
0.0
 51
90.0
  0
LINE
  5
10F
  8
0
 10
48.0
 20
58.0
 30
0.0
 11
48.0
 21
48.0
 31
0.0
  0
ARC
  5
110
  8
0
 10
46.0
 20
48.0
 30
0.0
 40
2.0
 50
270.0
 51
0.0
  0
LINE
  5
111
  8
0
 10
46.0
 20
46.0
 30
0.0
 11
42.0
 21
46.0
 31
0.0
  0
ARC
  5
112
  8
0
 10
42.0
 20
48.0
 30
0.0
 40
2.0
 50
180.0
 51
270.0
  0
LINE
  5
113
  8
0
 10
40.0
 20
48.0
 30
0.0
 11
40.0
 21
58.0
 31
0.0
  0
ARC
  5
114
  8
0
 10
68.0
 20
38.0
 30
0.0
 40
2.0
 50
90.0
 51
180.0
  0
LINE
  5
115
  8
0
 10
68.0
 20
40.0
 30
0.0
 11
74.0
 21
40.0
 31
0.0
  0
ARC
  5
116
  8
0
 10
74.0
 20
38.0
 30
0.0
 40
2.0
 50
0.0
 51
90.0
  0
LINE
  5
117
  8
0
 10
76.0
 20
38.0
 30
0.0
 11
76.0
 21
28.0
 31
0.0
  0
ARC
  5
118
  8
0
 10
74.0
 20
28.0
 30
0.0
 40
2.0
 50
270.0
 51
0.0
  0
LINE
  5
119
  8
0
 10
74.0
 20
26.0
 30
0.0
 11
68.0
 21
26.0
 31
0.0
  0
ARC
  5
11A
  8
0
 10
68.0
 20
28.0
 30
0.0
 40
2.0
 50
180.0
 51
270.0
  0
LINE
  5
11B
  8
0
 10
66.0
 20
28.0
 30
0.0
 11
66.0
 21
38.0
 31
0.0
  0
CIRCLE
  5
11C
  8
0
 10
20.0
 20
4.0
 30
0.0
 40
1.5
  0
CIRCLE
  5
11D
  8
0
 10
80.0
 20
4.0
 30
0.0
 40
1.5
  0
CIRCLE
  5
11E
  8
0
 10
20.0
 20
62.0
 30
0.0
 40
1.5
  0
CIRCLE
  5
11F
  8
0
 10
80.0
 20
62.0
 30
0.0
 40
1.5
  0
CIRCLE
  5
120
  8
0
 10
7.0
 20
3.0
 30
0.0
 40
1.5
  0
CIRCLE
  5
121
  8
0
 10
7.0
 20
23.0
 30
0.0
 40
1.5
  0
CIRCLE
  5
122
  8
0
 10
7.0
 20
43.0
 30
0.0
 40
1.5
  0
CIRCLE
  5
123
  8
0
 10
7.0
 20
63.0
 30
0.0
 40
1.5
  0
CIRCLE
  5
124
  8
0
 10
27.0
 20
63.0
 30
0.0
 40
1.5
  0
CIRCLE
  5
125
  8
0
 10
27.0
 20
43.0
 30
0.0
 40
1.5
  0
CIRCLE
  5
126
  8
0
 10
27.0
 20
3.0
 30
0.0
 40
1.5
  0
CIRCLE
  5
127
  8
0
 10
27.0
 20
23.0
 30
0.0
 40
1.5
  0
CIRCLE
  5
128
  8
0
 10
34.0
 20
3.0
 30
0.0
 40
1.5
  0
CIRCLE
  5
129
  8
0
 10
34.0
 20
23.0
 30
0.0
 40
1.5
  0
CIRCLE
  5
12A
  8
0
 10
34.0
 20
43.0
 30
0.0
 40
1.5
  0
CIRCLE
  5
12B
  8
0
 10
34.0
 20
63.0
 30
0.0
 40
1.5
  0
CIRCLE
  5
12C
  8
0
 10
54.0
 20
63.0
 30
0.0
 40
1.5
  0
CIRCLE
  5
12D
  8
0
 10
54.0
 20
43.0
 30
0.0
 40
1.5
  0
CIRCLE
  5
12E
  8
0
 10
54.0
 20
3.0
 30
0.0
 40
1.5
  0
CIRCLE
  5
12F
  8
0
 10
54.0
 20
23.0
 30
0.0
 40
1.5
  0
CIRCLE
  5
130
  8
0
 10
61.0
 20
53.0
 30
0.0
 40
1.5
  0
CIRCLE
  5
131
  8
0
 10
81.0
 20
53.0
 30
0.0
 40
1.5
  0
CIRCLE
  5
132
  8
0
 10
61.0
 20
13.0
 30
0.0
 40
1.5
  0
CIRCLE
  5
133
  8
0
 10
81.0
 20
13.0
 30
0.0
 40
1.5
  0
CIRCLE
  5
134
  8
0
 10
61.0
 20
23.0
 30
0.0
 40
1.5
  0
CIRCLE
  5
135
  8
0
 10
81.0
 20
23.0
 30
0.0
 40
1.5
  0
CIRCLE
  5
136
  8
0
 10
61.0
 20
43.0
 30
0.0
 40
1.5
  0
CIRCLE
  5
137
  8
0
 10
81.0
 20
43.0
 30
0.0
 40
1.5
  0
VIEWPORT
  5
5EC
 67
     1
  8
0
 62
    18
 10
5.25
 20
4.0
 30
0.0
 40
11.638
 41
8.993
 68
     1
 69
     1
1001
ACAD
1000
MVIEW
1002
{
1070
    16
1010
0.0
1020
0.0
1030
0.0
1010
0.0
1020
0.0
1030
1.0
1040
0.0
1040
8.993
1040
5.25
1040
4.0
1040
50.0
1040
0.0
1040
0.0
1070
     0
1070
   100
1070
     0
1070
     3
1070
     0
1070
     0
1070
     0
1070
     0
1040
0.0
1040
0.0
1040
0.0
1040
0.5
1040
0.5
1040
0.5
1040
0.5
1070
     0
1002
{
1002
}
1002
}
  0
ENDSEC
  0
EOF
